<svg width="18" height="18" viewBox="0 0 18 18" fill="currentColor" xmlns="http://www.w3.org/2000/svg">
<path fill-rule="evenodd" clip-rule="evenodd" d="M13.6792 12.3934L17.726 16.4403C17.9087 16.6229 18 16.8337 18 17.0726C18 17.3115 17.9087 17.5222 17.726 17.7049C17.6276 17.8033 17.5187 17.8735 17.3993 17.9157C17.2799 17.9578 17.178 17.9789 17.0937 17.9789C17.0094 17.9789 16.9075 17.9578 16.7881 17.9157C16.6686 17.8735 16.5597 17.8033 16.4614 17.7049L12.4145 13.6581C11.74 14.1499 11.0023 14.5433 10.2014 14.8384C9.40047 15.1335 8.55035 15.281 7.65106 15.281C6.59719 15.281 5.60656 15.0843 4.67916 14.6909C3.75175 14.2834 2.94028 13.7354 2.24473 13.0468C1.54918 12.3583 1.00469 11.5504 0.611241 10.623C0.203745 9.69554 0 8.6979 0 7.62997C0 6.57611 0.203745 5.58548 0.611241 4.65808C1.00469 3.73067 1.54918 2.92272 2.24473 2.23419C2.94028 1.54566 3.75175 0.997659 4.67916 0.590164C5.60656 0.196717 6.59719 0 7.65106 0C8.70492 0 9.69554 0.196717 10.623 0.590164C11.5504 0.997659 12.3618 1.54566 13.0574 2.23419C13.7529 2.92272 14.2974 3.73067 14.6909 4.65808C15.0984 5.58548 15.3021 6.57611 15.3021 7.62997C15.3021 8.52928 15.1546 9.39344 14.8595 10.2225C14.5644 11.0515 14.171 11.7752 13.6792 12.3934ZM2.25527 5.35363C1.96019 6.07026 1.81265 6.82903 1.81265 7.62997C1.81265 8.44497 1.96019 9.20374 2.25527 9.90632C2.5644 10.623 2.98243 11.2447 3.50937 11.7717C4.0363 12.2986 4.65808 12.7166 5.37471 13.0258C6.07729 13.3349 6.83606 13.4895 7.65106 13.4895C8.46605 13.4895 9.22482 13.3384 9.9274 13.0363C10.63 12.7342 11.2482 12.3162 11.7822 11.7822C12.3302 11.2342 12.7518 10.6089 13.0468 9.90632C13.3419 9.20374 13.4895 8.44497 13.4895 7.62997C13.4895 6.82903 13.3419 6.07026 13.0468 5.35363C12.7377 4.65105 12.3197 4.03279 11.7927 3.49883C11.2658 2.96487 10.644 2.55035 9.9274 2.25527C9.22482 1.94613 8.46605 1.79157 7.65106 1.79157C6.83606 1.79157 6.07729 1.94613 5.37471 2.25527C4.65808 2.55035 4.0363 2.96487 3.50937 3.49883C2.98243 4.03279 2.5644 4.65105 2.25527 5.35363Z" />
</svg>
